<svg width="24" height="24" viewBox="0 0 24 24" fill="none" xmlns="http://www.w3.org/2000/svg">
<path d="M18.8993 5.10106C19.301 5.50274 19.301 6.154 18.8993 6.55568L7.24221 18.2128C6.84053 18.6145 6.18926 18.6145 5.78759 18.2128C5.38591 17.8111 5.38591 17.1599 5.78759 16.7582L17.4448 5.10106C17.8465 4.69939 18.4976 4.69939 18.8993 5.10106Z" fill="#03133A"/>
<path d="M4.80078 5.82838C4.80078 5.26032 5.26129 4.7998 5.82935 4.7998H18.1722C18.7403 4.7998 19.2008 5.26032 19.2008 5.82838V18.1712C19.2008 18.7393 18.7403 19.1998 18.1722 19.1998C17.6042 19.1998 17.1436 18.7393 17.1436 18.1712V6.85695H5.82935C5.26129 6.85695 4.80078 6.39644 4.80078 5.82838Z" fill="#03133A"/>
</svg>
